<mxfile host="Electron" modified="2023-05-14T11:13:47.063Z" agent="Mozilla/5.0 (X11; Linux x86_64) AppleWebKit/537.36 (KHTML, like Gecko) draw.io/21.2.8 Chrome/112.0.5615.165 Electron/24.2.0 Safari/537.36" etag="F2v6CMNKkrEFpDK-2CxT" version="21.2.8" type="device">
  <diagram name="ページ1" id="0cQT-juLdbJry0Ui5K0V">
    <mxGraphModel dx="683" dy="420" grid="1" gridSize="10" guides="1" tooltips="1" connect="1" arrows="1" fold="1" page="1" pageScale="1" pageWidth="850" pageHeight="1100" math="0" shadow="0">
      <root>
        <mxCell id="0" />
        <mxCell id="1" parent="0" />
        <mxCell id="aDVjVUDnvdYnqymPPVj6-1" value="" style="ellipse;whiteSpace=wrap;html=1;aspect=fixed;" parent="1" vertex="1">
          <mxGeometry x="360" y="160" width="40" height="40" as="geometry" />
        </mxCell>
        <mxCell id="aDVjVUDnvdYnqymPPVj6-2" value="&lt;font style=&quot;font-size: 20px;&quot; face=&quot;Latin Modern Math&quot;&gt;x&lt;/font&gt;" style="ellipse;whiteSpace=wrap;html=1;aspect=fixed;" parent="1" vertex="1">
          <mxGeometry x="280" y="240" width="40" height="40" as="geometry" />
        </mxCell>
        <mxCell id="aDVjVUDnvdYnqymPPVj6-3" value="" style="ellipse;whiteSpace=wrap;html=1;aspect=fixed;" parent="1" vertex="1">
          <mxGeometry x="340" y="360" width="40" height="40" as="geometry" />
        </mxCell>
        <mxCell id="aDVjVUDnvdYnqymPPVj6-4" value="" style="ellipse;whiteSpace=wrap;html=1;aspect=fixed;" parent="1" vertex="1">
          <mxGeometry x="220" y="360" width="40" height="40" as="geometry" />
        </mxCell>
        <mxCell id="aDVjVUDnvdYnqymPPVj6-5" value="" style="ellipse;whiteSpace=wrap;html=1;aspect=fixed;" parent="1" vertex="1">
          <mxGeometry x="280" y="360" width="40" height="40" as="geometry" />
        </mxCell>
        <mxCell id="aDVjVUDnvdYnqymPPVj6-6" value="" style="ellipse;whiteSpace=wrap;html=1;aspect=fixed;" parent="1" vertex="1">
          <mxGeometry x="440" y="240" width="40" height="40" as="geometry" />
        </mxCell>
        <mxCell id="aDVjVUDnvdYnqymPPVj6-7" value="" style="ellipse;whiteSpace=wrap;html=1;aspect=fixed;" parent="1" vertex="1">
          <mxGeometry x="470" y="360" width="40" height="40" as="geometry" />
        </mxCell>
        <mxCell id="aDVjVUDnvdYnqymPPVj6-8" value="" style="ellipse;whiteSpace=wrap;html=1;aspect=fixed;" parent="1" vertex="1">
          <mxGeometry x="410" y="360" width="40" height="40" as="geometry" />
        </mxCell>
        <mxCell id="aDVjVUDnvdYnqymPPVj6-9" value="" style="ellipse;whiteSpace=wrap;html=1;aspect=fixed;" parent="1" vertex="1">
          <mxGeometry x="340" y="440" width="40" height="40" as="geometry" />
        </mxCell>
        <mxCell id="aDVjVUDnvdYnqymPPVj6-10" value="" style="ellipse;whiteSpace=wrap;html=1;aspect=fixed;" parent="1" vertex="1">
          <mxGeometry x="410" y="440" width="40" height="40" as="geometry" />
        </mxCell>
        <mxCell id="aDVjVUDnvdYnqymPPVj6-11" value="" style="endArrow=none;html=1;rounded=0;entryX=0.5;entryY=1;entryDx=0;entryDy=0;exitX=0.5;exitY=0;exitDx=0;exitDy=0;" parent="1" source="aDVjVUDnvdYnqymPPVj6-2" target="aDVjVUDnvdYnqymPPVj6-1" edge="1">
          <mxGeometry width="50" height="50" relative="1" as="geometry">
            <mxPoint x="330" y="260" as="sourcePoint" />
            <mxPoint x="380" y="210" as="targetPoint" />
          </mxGeometry>
        </mxCell>
        <mxCell id="aDVjVUDnvdYnqymPPVj6-12" value="" style="endArrow=none;html=1;rounded=0;entryX=0.5;entryY=1;entryDx=0;entryDy=0;exitX=0.5;exitY=0;exitDx=0;exitDy=0;" parent="1" source="aDVjVUDnvdYnqymPPVj6-6" target="aDVjVUDnvdYnqymPPVj6-1" edge="1">
          <mxGeometry width="50" height="50" relative="1" as="geometry">
            <mxPoint x="400" y="290" as="sourcePoint" />
            <mxPoint x="450" y="240" as="targetPoint" />
          </mxGeometry>
        </mxCell>
        <mxCell id="aDVjVUDnvdYnqymPPVj6-13" value="" style="endArrow=none;html=1;rounded=0;entryX=0.5;entryY=1;entryDx=0;entryDy=0;exitX=0.5;exitY=0;exitDx=0;exitDy=0;" parent="1" source="aDVjVUDnvdYnqymPPVj6-4" target="aDVjVUDnvdYnqymPPVj6-2" edge="1">
          <mxGeometry width="50" height="50" relative="1" as="geometry">
            <mxPoint x="160" y="390" as="sourcePoint" />
            <mxPoint x="210" y="340" as="targetPoint" />
          </mxGeometry>
        </mxCell>
        <mxCell id="aDVjVUDnvdYnqymPPVj6-14" value="" style="endArrow=none;html=1;rounded=0;entryX=0.5;entryY=1;entryDx=0;entryDy=0;exitX=0.5;exitY=0;exitDx=0;exitDy=0;" parent="1" source="aDVjVUDnvdYnqymPPVj6-5" target="aDVjVUDnvdYnqymPPVj6-2" edge="1">
          <mxGeometry width="50" height="50" relative="1" as="geometry">
            <mxPoint x="280" y="350" as="sourcePoint" />
            <mxPoint x="330" y="300" as="targetPoint" />
          </mxGeometry>
        </mxCell>
        <mxCell id="aDVjVUDnvdYnqymPPVj6-15" value="" style="endArrow=none;html=1;rounded=0;entryX=0.5;entryY=1;entryDx=0;entryDy=0;exitX=0.5;exitY=0;exitDx=0;exitDy=0;" parent="1" source="aDVjVUDnvdYnqymPPVj6-3" target="aDVjVUDnvdYnqymPPVj6-2" edge="1">
          <mxGeometry width="50" height="50" relative="1" as="geometry">
            <mxPoint x="330" y="340" as="sourcePoint" />
            <mxPoint x="380" y="290" as="targetPoint" />
          </mxGeometry>
        </mxCell>
        <mxCell id="aDVjVUDnvdYnqymPPVj6-16" value="" style="endArrow=none;html=1;rounded=0;entryX=0.5;entryY=1;entryDx=0;entryDy=0;exitX=0.5;exitY=0;exitDx=0;exitDy=0;" parent="1" source="aDVjVUDnvdYnqymPPVj6-8" target="aDVjVUDnvdYnqymPPVj6-6" edge="1">
          <mxGeometry width="50" height="50" relative="1" as="geometry">
            <mxPoint x="480" y="370" as="sourcePoint" />
            <mxPoint x="530" y="320" as="targetPoint" />
          </mxGeometry>
        </mxCell>
        <mxCell id="aDVjVUDnvdYnqymPPVj6-17" value="" style="endArrow=none;html=1;rounded=0;entryX=0.5;entryY=1;entryDx=0;entryDy=0;exitX=0.5;exitY=0;exitDx=0;exitDy=0;" parent="1" source="aDVjVUDnvdYnqymPPVj6-7" target="aDVjVUDnvdYnqymPPVj6-6" edge="1">
          <mxGeometry width="50" height="50" relative="1" as="geometry">
            <mxPoint x="520" y="370" as="sourcePoint" />
            <mxPoint x="570" y="320" as="targetPoint" />
          </mxGeometry>
        </mxCell>
        <mxCell id="aDVjVUDnvdYnqymPPVj6-18" value="" style="endArrow=none;html=1;rounded=0;entryX=0.5;entryY=1;entryDx=0;entryDy=0;exitX=0.5;exitY=0;exitDx=0;exitDy=0;" parent="1" source="aDVjVUDnvdYnqymPPVj6-9" target="aDVjVUDnvdYnqymPPVj6-3" edge="1">
          <mxGeometry width="50" height="50" relative="1" as="geometry">
            <mxPoint x="300" y="470" as="sourcePoint" />
            <mxPoint x="350" y="420" as="targetPoint" />
          </mxGeometry>
        </mxCell>
        <mxCell id="aDVjVUDnvdYnqymPPVj6-19" value="" style="endArrow=none;html=1;rounded=0;entryX=0.5;entryY=1;entryDx=0;entryDy=0;exitX=0.5;exitY=0;exitDx=0;exitDy=0;" parent="1" source="aDVjVUDnvdYnqymPPVj6-10" target="aDVjVUDnvdYnqymPPVj6-8" edge="1">
          <mxGeometry width="50" height="50" relative="1" as="geometry">
            <mxPoint x="470" y="460" as="sourcePoint" />
            <mxPoint x="520" y="410" as="targetPoint" />
          </mxGeometry>
        </mxCell>
        <UserObject label="&lt;font style=&quot;font-size: 20px;&quot; face=&quot;Latin Modern Math&quot;&gt;parent(x)&lt;/font&gt;" placeholders="1" name="Variable" id="exuTe8oe4YaPlbGfDQXu-1">
          <mxCell style="text;html=1;strokeColor=none;fillColor=none;align=center;verticalAlign=middle;whiteSpace=wrap;overflow=hidden;" vertex="1" parent="1">
            <mxGeometry x="250" y="120" width="100" height="30" as="geometry" />
          </mxCell>
        </UserObject>
        <mxCell id="exuTe8oe4YaPlbGfDQXu-3" value="" style="endArrow=classic;html=1;rounded=0;entryX=0;entryY=0;entryDx=0;entryDy=0;exitX=0.75;exitY=1;exitDx=0;exitDy=0;" edge="1" parent="1" source="exuTe8oe4YaPlbGfDQXu-1" target="aDVjVUDnvdYnqymPPVj6-1">
          <mxGeometry width="50" height="50" relative="1" as="geometry">
            <mxPoint x="300" y="180" as="sourcePoint" />
            <mxPoint x="350" y="130" as="targetPoint" />
          </mxGeometry>
        </mxCell>
        <UserObject label="&lt;font style=&quot;font-size: 20px;&quot; face=&quot;Latin Modern Math&quot;&gt;sibling(x)&lt;/font&gt;" placeholders="1" name="Variable" id="exuTe8oe4YaPlbGfDQXu-5">
          <mxCell style="text;html=1;strokeColor=none;fillColor=none;align=center;verticalAlign=middle;whiteSpace=wrap;overflow=hidden;" vertex="1" parent="1">
            <mxGeometry x="490" y="200" width="90" height="30" as="geometry" />
          </mxCell>
        </UserObject>
        <mxCell id="exuTe8oe4YaPlbGfDQXu-6" value="" style="endArrow=classic;html=1;rounded=0;entryX=1;entryY=0;entryDx=0;entryDy=0;exitX=0.25;exitY=1;exitDx=0;exitDy=0;" edge="1" parent="1" source="exuTe8oe4YaPlbGfDQXu-5" target="aDVjVUDnvdYnqymPPVj6-6">
          <mxGeometry width="50" height="50" relative="1" as="geometry">
            <mxPoint x="480" y="290" as="sourcePoint" />
            <mxPoint x="530" y="240" as="targetPoint" />
          </mxGeometry>
        </mxCell>
        <UserObject label="&lt;font style=&quot;font-size: 20px;&quot; face=&quot;Latin Modern Math&quot;&gt;firstchild(x)&lt;br&gt;= child(x, 0)&lt;br&gt;&lt;/font&gt;" placeholders="1" name="Variable" id="exuTe8oe4YaPlbGfDQXu-7">
          <mxCell style="text;html=1;strokeColor=none;fillColor=none;align=center;verticalAlign=middle;whiteSpace=wrap;overflow=hidden;" vertex="1" parent="1">
            <mxGeometry x="90" y="300" width="130" height="50" as="geometry" />
          </mxCell>
        </UserObject>
        <mxCell id="exuTe8oe4YaPlbGfDQXu-8" value="" style="endArrow=classic;html=1;rounded=0;entryX=0;entryY=0;entryDx=0;entryDy=0;exitX=0.75;exitY=1;exitDx=0;exitDy=0;" edge="1" parent="1" source="exuTe8oe4YaPlbGfDQXu-7" target="aDVjVUDnvdYnqymPPVj6-4">
          <mxGeometry width="50" height="50" relative="1" as="geometry">
            <mxPoint x="170" y="420" as="sourcePoint" />
            <mxPoint x="220" y="370" as="targetPoint" />
          </mxGeometry>
        </mxCell>
        <UserObject label="&lt;font style=&quot;font-size: 20px;&quot; face=&quot;Latin Modern Math&quot;&gt;lastchild(x)&lt;br&gt;=child(x, 2)&lt;br&gt;&lt;/font&gt;" placeholders="1" name="Variable" id="exuTe8oe4YaPlbGfDQXu-9">
          <mxCell style="text;html=1;strokeColor=none;fillColor=none;align=center;verticalAlign=middle;whiteSpace=wrap;overflow=hidden;" vertex="1" parent="1">
            <mxGeometry x="220" y="420" width="110" height="60" as="geometry" />
          </mxCell>
        </UserObject>
        <mxCell id="exuTe8oe4YaPlbGfDQXu-10" value="" style="endArrow=classic;html=1;rounded=0;entryX=0;entryY=1;entryDx=0;entryDy=0;exitX=0.75;exitY=0;exitDx=0;exitDy=0;" edge="1" parent="1" source="exuTe8oe4YaPlbGfDQXu-9" target="aDVjVUDnvdYnqymPPVj6-3">
          <mxGeometry width="50" height="50" relative="1" as="geometry">
            <mxPoint x="280" y="450" as="sourcePoint" />
            <mxPoint x="330" y="400" as="targetPoint" />
          </mxGeometry>
        </mxCell>
        <UserObject label="&lt;font style=&quot;font-size: 20px;&quot; face=&quot;Latin Modern Math&quot;&gt;&lt;font style=&quot;font-size: 20px;&quot;&gt;bfs_rank(x)=1&lt;br&gt;isleaf(x)=no&lt;br&gt;&lt;/font&gt;degree(x)=3&lt;br&gt;&lt;/font&gt;&lt;font style=&quot;font-size: 20px;&quot; face=&quot;Latin Modern Math&quot;&gt;&lt;font style=&quot;font-size: 20px;&quot;&gt;childrank(x)=0&lt;/font&gt;&lt;br&gt;&lt;/font&gt;" placeholders="1" name="Variable" id="exuTe8oe4YaPlbGfDQXu-11">
          <mxCell style="text;html=1;strokeColor=none;fillColor=none;align=center;verticalAlign=middle;whiteSpace=wrap;overflow=hidden;" vertex="1" parent="1">
            <mxGeometry x="130" y="160" width="140" height="120" as="geometry" />
          </mxCell>
        </UserObject>
      </root>
    </mxGraphModel>
  </diagram>
</mxfile>
